<svg id="Layer_1" data-name="Layer 1" xmlns="http://www.w3.org/2000/svg" viewBox="0 0 425.87 116.43"><defs><style>.cls-1{fill:#0069a9;}.cls-2{fill:#69a5d9;}.cls-3{fill:#d1d3d4;}.cls-4{fill:#939598;}.cls-5,.cls-6{fill:#e6e7e8;}.cls-6{font-size:29.15px;font-family:FrutigerLTCom-BoldItalic, Frutiger LT Com;font-weight:700;font-style:italic;letter-spacing:-0.01em;}</style></defs><polygon class="cls-1" points="54.2 42.51 55.9 40.75 59.83 45.13 58.99 45.97 54.2 42.51"/><polygon class="cls-1" points="55.71 40.53 59.83 45.13 99.46 44.98 95.42 39.77 55.71 40.53"/><polygon class="cls-1" points="48.7 69.93 55.05 67.64 58.99 45.97 54.2 42.51 48.7 69.93"/><path class="cls-2" d="M120.35,23.4l.47-2.21-2.22-3H57.41l-3.15,2.72H48.81a3.31,3.31,0,0,0-3,2.6,2,2,0,0,0,1.9,2.61h9.94a1.64,1.64,0,0,1,1.56,2.14l-.19.92a2.73,2.73,0,0,1-2.48,2.14H52v0H39.22a3.06,3.06,0,0,0-2.78,2.4l-.08.39a1.85,1.85,0,0,0,1.76,2.41h8.33A1.92,1.92,0,0,1,48.28,39l0,.19a3.19,3.19,0,0,1-2.9,2.51H44.19l5.57,0h-34a3.36,3.36,0,0,0-3.05,2.65l0,.08a2,2,0,0,0,1.93,2.64H46.5a2,2,0,0,1,1.19,2.44,3.37,3.37,0,0,1-1.93,2.3H41.41A2.73,2.73,0,0,0,38.93,54l-.2.9a1.65,1.65,0,0,0,1.58,2.15h6.21a1.65,1.65,0,0,1,1.57,2.15l-.19.91a2.73,2.73,0,0,1-2.42,2.13H42.79a2.74,2.74,0,0,0-2.48,2.15l-.2.91a1.65,1.65,0,0,0,1.58,2.15H44.3l-.53,2.47H48.7l5.83-27.42,2.08-1.76H96.13l1.44,1.92-5.8,27.26h18.69l.17-.81c-3.44,0-5.6-3-4.83-6.61s4.2-6.6,7.64-6.6l.65-3c-3.44,0-5.61-3-4.83-6.6s4.19-6.6,7.63-6.6l.65-3c-3.44,0-5.6-3-4.83-6.61S116.91,23.4,120.35,23.4Z"/><path class="cls-3" d="M90.37,49.13H64.85l-1.28,1.06-3,18.61.79.68,22.91.41c.4-.8,1.84,0,1.84,0l1.76-1.09,3.44-18.48Z"/><polygon class="cls-4" points="88.61 50.21 63.56 50.21 62.28 51.27 58.82 69.89 86.12 69.89 89.57 51.36 88.61 50.21"/><ellipse class="cls-4" cx="120.57" cy="30.7" rx="3.7" ry="3.92"/><ellipse class="cls-4" cx="116.88" cy="47.24" rx="3.7" ry="3.92"/><ellipse class="cls-4" cx="113.18" cy="63.77" rx="3.7" ry="3.92"/><rect class="cls-2" x="24.81" y="51.86" width="10.43" height="5.21" rx="2.09"/><rect class="cls-2" x="25.26" y="31.32" width="7.65" height="5.21" rx="2.09"/><path class="cls-5" d="M139.27,31.36h24.06L162,38H145.64l-2,9.37h12.69l-1.2,6H142.37L138.89,70h-10.3Z"/><path class="cls-5" d="M176.56,32H185l6.92,38h-7.62L183,61.3H166.81L162,70h-8.44Zm-6.37,23.3h11.75l-2.39-16.55h-.22Z"/><path class="cls-5" d="M196.4,19.4c1-.27,2.08-.49,3.11-.66a20.65,20.65,0,0,1,3.17-.25,18,18,0,0,1,2.6.2,8.41,8.41,0,0,1,2.46.76A4.85,4.85,0,0,1,209.56,21a4.44,4.44,0,0,1,.71,2.58,4.52,4.52,0,0,1-.46,2.08,5.25,5.25,0,0,1-1.21,1.59,6.05,6.05,0,0,1-1.72,1.09,10.38,10.38,0,0,1-2,.61v.1a7.85,7.85,0,0,1,2.76,1.52,3.43,3.43,0,0,1,1.09,2.73,6,6,0,0,1-.91,3.44,6.94,6.94,0,0,1-2.33,2.18,10.75,10.75,0,0,1-3.16,1.17,17.73,17.73,0,0,1-3.42.35,26.74,26.74,0,0,1-3.7-.26,12.86,12.86,0,0,1-3.54-1l.81-3.74a13.3,13.3,0,0,0,2.76.76,19.46,19.46,0,0,0,2.81.2,9.68,9.68,0,0,0,1.67-.15,5.17,5.17,0,0,0,1.54-.51,3.51,3.51,0,0,0,1.14-.89,1.86,1.86,0,0,0,.46-1.28,1.67,1.67,0,0,0-.48-1.27,3.1,3.1,0,0,0-1.19-.68,5.24,5.24,0,0,0-1.5-.26l-1.39,0H196.5l.61-4.05c.5,0,1.17,0,2-.05a12.46,12.46,0,0,0,2.43-.33,5.49,5.49,0,0,0,2-.89,2,2,0,0,0,.84-1.72,1.42,1.42,0,0,0-.94-1.31,4.3,4.3,0,0,0-2-.46,20.71,20.71,0,0,0-2.83.2,11.26,11.26,0,0,0-2.74.76Z"/><path class="cls-5" d="M234.64,39.31a18.94,18.94,0,0,0-3.76-1.42,16.34,16.34,0,0,0-4.14-.54,10.9,10.9,0,0,0-2.15.22,7.28,7.28,0,0,0-2.07.73A4.64,4.64,0,0,0,221,39.66a3.47,3.47,0,0,0-.6,2.05,3.72,3.72,0,0,0,1,2.58,11.53,11.53,0,0,0,2.39,2c1,.61,2,1.24,3.13,1.88A16.9,16.9,0,0,1,230,50.41a11.49,11.49,0,0,1,2.4,3.13,9.58,9.58,0,0,1,1,4.44,12.59,12.59,0,0,1-1.28,5.91,10.85,10.85,0,0,1-3.43,3.92,14.61,14.61,0,0,1-5,2.17,25,25,0,0,1-5.93.68,26.09,26.09,0,0,1-5.5-.59,44.61,44.61,0,0,1-5.34-1.53l2-6.48a48,48,0,0,0,4.55,1.83,14.8,14.8,0,0,0,4.76.79,10,10,0,0,0,2.67-.36,6.84,6.84,0,0,0,2.31-1.09,5.73,5.73,0,0,0,1.64-1.85,5.37,5.37,0,0,0,.62-2.64,4.3,4.3,0,0,0-.95-2.83,10.46,10.46,0,0,0-2.4-2.07c-1-.61-2-1.22-3.12-1.82a18.75,18.75,0,0,1-3.13-2.09,10.34,10.34,0,0,1-2.4-2.86,8.47,8.47,0,0,1-.95-4.22,10.28,10.28,0,0,1,4.35-8.74A14.19,14.19,0,0,1,221.3,32a20.61,20.61,0,0,1,5.28-.68,33.8,33.8,0,0,1,5,.38,22.35,22.35,0,0,1,4.84,1.31Z"/><path class="cls-5" d="M242.48,32h29.34l-1.26,6H259.84l-6.91,32h-8l6.91-32H241.17Z"/><text class="cls-6" transform="translate(145.96 101.74)">Service</text></svg>